Patient4_TMGait_0pt8_01_right_34_EMG.mot
version=1
nRows=33
nColumns=33
inDegrees=no
endheader
time	1LAddLong	2LGlutMax	3LGlutMed	4LIliopsoas	5LSemiMemb	6LBicFemLong	7LRecFem	8LVastMed	9LVastLat	10LGasMed	11LTibAnt	12lTibPost	13LPeroneusLong	14LSol	15LExtDigLong	16LFlexDigLong	17RAddLong	18RGlutMax	19RGlutMed	20RIliopsoas	21RSemiMemb	22RBicFemLong	23RRecFem	24RVastMed	25RVastLat	26RGasMed	27RTibAnt	28RTibPost	29RPeroneusLong	30RSol	31RExtDigLong	32RFlexDigLong
38.855	0.043182	-0.071106	-0.045776	-0.00885	0.004578	-0.14679	-0.001373	-0.023499	-0.014496	0.001831	0.076752	-0.006866	0.032349	0.003815	0.18158	-0.007629	0.014954	-0.00061	-0.32913	0.1416	0.19562	-0.053406	-0.10086	-0.039825	0.042572	-0.004272	0.025024	0.022125	-0.13001	0.43167	-0.003357	-0.007172
38.856	0.027618	-0.10178	-0.11185	-0.004883	-0.057983	-0.36545	0.009308	-0.024109	0.005188	0.019989	0.072021	-0.000153	0.002747	-0.000458	-0.1619	0.003204	0.013275	0.042725	-0.13504	0.12116	0.15442	-0.02533	-0.11383	0.014648	0.035553	-0.023804	0.027161	-0.007629	-0.26932	0.21164	0.001984	-0.00412
38.857	-0.004272	-0.16647	-0.15243	0.008392	-0.10544	-0.25696	-0.026398	-0.001984	-0.031433	0.01709	0.024719	-0.011597	0.018921	-0.007324	-0.47226	-0.004578	0.011749	0.042725	0.028076	0.045166	0.15396	-0.017395	-0.11322	-0.020142	0.046692	-0.032196	-0.044556	0.00061	0.48477	0.063782	-0.000916	-0.013123
38.858	-0.014038	-0.22797	-0.073395	0.005188	-0.13489	-0.020599	-0.054474	0.019379	-0.083923	0.00412	-0.068817	-0.001526	0.081482	-0.000153	-0.55847	0.001984	0.006714	0.05188	-0.23956	0.012665	0.21194	-0.069122	-0.067902	-0.004883	0.037842	-0.061188	-0.043945	0.040741	0.36514	0.061493	-0.002136	-0.013733
38.859	-0.018463	-0.26596	0.066833	-0.00061	-0.12543	0.21957	0.003815	0.03952	-0.067291	0.011597	0.032806	0.007477	0.042725	-0.017395	-0.2002	0.010834	0.015564	0.054779	-0.28778	0.00412	0.24216	-0.12161	-0.10223	-0.027771	0.041656	-0.068512	-0.058899	0.004883	0.20996	0.25116	-0.00351	-0.022583
38.86	-0.019379	-0.31189	-0.016327	0.005951	-0.019684	0.007172	-0.072174	0.045166	0.17242	0.002747	0.10162	-0.005035	0.032959	-0.017395	-0.090942	0.010376	0.015717	0.040741	-0.34195	0.084076	0.2272	-0.10269	-0.076904	-0.059204	0.036621	-0.046387	-0.069275	-0.007172	0.10788	0.22339	-0.001068	-0.026398
38.861	-0.02594	-0.31647	0.057831	0.003052	0.037384	-0.04715	-0.2388	0.03891	0.2977	-0.022278	-0.12024	0.005188	0.1001	-0.012817	-0.11032	0.002899	0.017242	0.02533	-0.28686	0.066223	0.20371	-0.1033	-0.097961	-0.012207	0.016937	-0.027771	-0.0737	-0.001526	0.081482	0.31967	-0.008087	-0.013275
38.862	-0.023956	-0.31479	0.073853	0.019989	-0.007019	0.099487	-0.21454	0.03479	0.34958	0.007477	-0.11078	0.000458	0.091248	-0.00351	-0.054474	-0.006104	0.01709	0.014496	-0.12054	0.01297	0.20065	-0.16281	-0.088806	-0.042267	0.018311	-0.022278	-0.044098	0.000916	0.10986	0.32989	-0.004883	-0.022736
38.863	-0.02121	-0.24567	0.046387	0.036011	-0.075073	-0.027313	-0.12482	0.029449	0.44784	0.023804	-0.001221	-0.001984	0.058746	0.047913	-0.029297	-0.003967	0.023346	0.068665	-0.24674	-0.017242	0.13611	-0.22201	-0.071411	-0.06897	0.03006	-0.016327	0.029602	-0.006866	0.078125	0.21927	0.003815	-0.021362
38.864	-0.010986	-0.26047	0.04303	-0.000916	0.020294	-0.52567	0.021667	0.012665	0.44403	0.015564	0.022125	0.000305	0.057068	0.051575	-0.020142	0.004883	0.018311	0.034943	-0.24658	-0.043335	0.077667	-0.18204	-0.074158	-0.035248	0.016785	-0.018616	0.13886	-0.015564	-0.0354	0.086212	-0.004425	-0.019989
38.865	-0.004425	-0.27908	0.066833	-0.005341	0.17609	-0.64621	0.001984	-0.006104	0.34546	0.014191	-0.037537	0.010376	0.08255	-0.009155	0.011139	0.003662	0.033112	0.033569	-0.37033	-0.070648	0.054474	-0.177	-0.10117	-0.000153	0.03067	0	0.18204	-0.011902	-0.10529	0.043182	-0.002899	-0.018463
38.866	-0.006866	-0.27725	0.063324	-0.004578	0.21027	-0.54275	-0.092316	-0.018311	0.11078	0.008545	-0.016937	0.007782	0.10101	-0.043793	0.033722	-0.011292	0.034485	0.08728	-0.457	-0.11032	0.073853	-0.16434	-0.11154	-0.057526	0.01297	0.00885	0.18845	-0.014801	-0.14313	0.22553	0.001068	-0.02121
38.867	-0.009155	-0.2475	-0.044403	0.005951	0.1181	-0.51987	-0.15106	-0.016785	-0.074921	0.009308	0.058289	0.008392	0.002441	-0.036316	-0.17181	0.00061	0.026245	0.097961	-0.63049	-0.094757	0.12878	-0.16785	-0.13825	-0.011597	0.019531	0.011444	0.15091	-0.014343	-0.20813	0.27527	-0.001678	-0.018463
38.868	-0.020142	-0.31204	-0.053558	0.046082	0.037994	-0.38132	-0.15717	-0.008545	-0.31357	-0.03479	0.17181	0.001373	0.20966	-0.02655	0.02121	-0.015411	0.020752	0.085754	-0.37338	-0.03952	0.098419	-0.16205	-0.087738	-0.028839	0.012665	0.006561	0.14984	-0.011292	-0.27374	0.16876	-0.001373	-0.019989
38.869	-0.02594	-0.32074	0.033875	0.027313	0.000305	-0.24017	-0.086517	-0.003967	-0.3125	-0.084381	0.30868	0.017395	0.56137	-0.000305	0.25314	0.002136	0.018921	0.054016	0.34485	-0.036774	0.086517	-0.10437	-0.10681	-0.004578	0.033112	0.003662	0.23285	-0.003357	-0.22903	-0.027313	-0.000153	-0.016022
38.87	-0.032959	-0.39078	0.12924	0.016327	0.027618	-0.16052	0.038452	-0.008392	-0.38773	-0.053406	0.37415	-0.000458	-0.065613	0.054474	0.22858	-0.015564	0.023499	0.10162	0.58945	-0.03006	0.1059	-0.094757	-0.103	-0.041504	0.012207	0.009155	0.19333	-0.014038	-0.069275	-0.20432	-0.000458	-0.00946
38.871	-0.021667	-0.51071	0.13962	-0.00473	0.047455	-0.069275	0.11795	-0.006866	-0.46997	-0.065155	0.024567	0.015106	0.13016	0.15808	0.18738	-0.00473	0.028534	0.015411	0.215	0.024567	0.11429	-0.16373	-0.088654	-0.050507	0.027771	0.008087	0.08255	-0.014191	0.14038	-0.29312	-0.003357	-0.005951
38.872	-0.011597	-0.48782	0.045776	0.009003	-0.015717	0.051422	0.12085	-0.012512	-0.48828	-0.030212	-0.1976	0.007477	-0.027771	0.16113	0.3183	0.012512	0.029144	0.054169	-0.29114	0.12482	0.089111	-0.21194	-0.10529	-0.024719	0.036469	0.01236	0.048523	-0.011444	0.035248	-0.28366	-0.002289	-0.006866
38.873	0.002747	-0.51163	0.010529	-0.001678	0.028076	0.035858	0.068054	-0.007935	-0.44556	0.015106	-0.15427	-0.003204	-0.16373	0.014191	0.46356	0.011139	0.02533	0.029907	-0.39093	0.066681	0.066681	-0.18112	-0.13825	-0.027618	0.031128	0.020447	-0.33264	-0.003357	0.21698	-0.31555	-0.007935	-0.002747
38.874	0.010376	-0.58609	-0.02121	0.020294	0.039673	-0.14221	0.058746	-0.00061	-0.27145	0.028076	-0.1033	0.031433	-0.02533	-0.006104	-0.20721	0.013123	0.026855	-0.010681	-0.14465	-0.042419	0.058136	-0.10529	-0.097351	-0.037079	0.028687	0.028076	-0.27405	-0.011139	0.11978	-0.21362	-0.00473	-0.008087
38.875	-0.016785	-0.61432	-0.016022	0.014496	0.047913	-0.006561	0.015106	-0.002594	-0.00473	0.020447	-0.040894	0.032959	-0.062103	-0.005493	-0.19989	0.010223	0.021362	-0.00351	-0.048523	-0.096436	0.050659	-0.070343	-0.062866	-0.061951	0.01236	0.014038	-0.005035	-0.010986	0.20874	-0.17944	0	-0.014038
38.876	-0.031586	-0.49896	0.037689	0.011597	0.045471	0.2298	0.031433	-0.003052	0.1564	0.020599	0.020447	0.036316	0.12436	-0.037689	-0.26443	0.000458	0.003967	0.041504	-0.1683	-0.12283	0.089569	-0.029602	-0.070953	-0.045013	0.016022	0.007782	0.15961	-0.00946	-0.37018	-0.19104	-0.006409	-0.018768
38.877	-0.039215	-0.53879	-0.004883	0.01297	-0.042267	0.31403	-0.013885	0.019379	0.34515	0.0354	-0.026398	0.034637	0.089417	-0.031738	0.3038	-0.005646	0.007172	-0.080414	-0.17151	-0.032196	0.063782	-0.021362	-0.081787	-0.037079	0.009918	-0.002289	0.14755	-0.010376	-0.64194	-0.078583	-0.002747	-0.019989
38.878	-0.041962	-0.55618	-0.040894	0.002289	-0.056	0.49866	-0.029144	0.034485	0.44449	0.03891	0.038452	0.028229	0.096741	-0.054169	-0.11841	-0.010834	0.02182	-0.033875	-0.11231	0.066833	0.00412	-0.10071	-0.071259	-0.020905	-0.000153	-0.031433	0.10361	-0.11429	-0.3714	-0.008392	-0.002136	-0.021515
38.879	-0.028076	-0.55283	0.063324	0.00824	-0.018616	0.52795	-0.015564	0.031281	0.27084	0.037689	0.051575	0.035248	0.215	-0.068207	0.11688	-0.006256	0.018463	-0.072174	-0.063934	0.14069	-0.068512	-0.18326	-0.10483	0.031891	0.021973	-0.050964	0.013733	-0.41199	-0.77148	-0.2655	-0.006256	-0.023804
38.88	-0.023651	-0.56641	0.11551	0.002594	-0.023499	0.45624	0.03006	0.017548	-0.02243	0.010986	-0.13626	0.03418	0.4007	-0.055542	0.14114	-0.009308	0.022125	-0.053558	-0.16602	0.19928	-0.11414	-0.2832	-0.093079	0.006866	0.057831	-0.038605	0.058289	0.23361	-0.82565	-0.54153	-0.003357	-0.020905
38.881	-0.02655	-0.62561	0.12833	0.006866	0.01236	0.20203	0.043945	0.00946	-0.2211	0.008698	-0.14786	0.044403	0.63019	-0.11658	-0.036621	-0.012512	0.048218	-0.016479	-0.17517	0.097046	-0.11963	-0.34103	-0.090942	0.03006	0.04837	0.018921	0.040283	0.1532	-0.34256	-0.78598	-0.001831	-0.024872
38.882	-0.033112	-0.6308	0.051422	0.012207	-0.018616	0.035858	-0.042267	-0.003815	-0.24521	0.047455	0.064087	0.034027	0.40451	-0.15595	-0.26184	-0.01297	0.026855	0.00885	-0.11017	-0.00473	-0.079956	-0.38696	-0.059814	0.024261	0.057526	0.04776	-0.057068	0.025177	0.36499	-0.52704	-0.002289	-0.015717
38.883	-0.018158	-0.58044	0.13565	0.003662	-0.065613	-0.18112	-0.16174	-0.006104	-0.17075	0.025635	-0.027618	0.031586	0.20386	-0.063171	-0.18951	-0.021362	0.007477	0.001984	-0.029755	0.010223	-0.015717	-0.20859	-0.10056	0.028992	0.09491	-0.009155	-0.12161	-0.18265	1.1272	-0.47119	-0.001373	-0.009003
38.884	-0.009155	-0.55725	0.16693	0.003357	-0.11734	-0.44479	-0.1944	-0.011749	-0.047455	0.00473	-0.27817	0.036621	-0.069122	0.070343	-0.11398	-0.02655	-0.045776	0.00824	-0.025482	0.067444	0.03006	-0.12344	-0.084229	0.016479	0.11307	-0.012207	-0.03891	-0.69305	0.75897	-0.22385	-0.003357	-0.010071
38.885	0.010071	-0.54413	0.20538	0.001373	0.019226	-0.32486	-0.083313	-0.023651	0.047913	-0.029449	-0.1294	0.044098	-0.27557	0.11353	-0.06134	-0.031891	-0.054321	-0.021057	-0.091705	0.09964	0.055695	-0.087891	-0.032806	-0.020142	0.065765	0.000916	-0.030212	0.56793	-0.18021	0.15396	-0.00061	-0.018921
38.886	0.035706	-0.45883	0.22125	0.023651	0.1445	-0.39825	-0.041962	-0.021362	0.018158	-0.027771	-0.10498	0.036011	-0.23163	0.070648	0.005646	-0.06485	-0.040436	-0.054779	-0.1622	0.05188	0.064087	-0.015717	-0.014648	-0.038757	0.062256	0.017548	-0.028992	0.18463	-0.37323	0.57953	-0.00061	-0.016479
38.887	0.045471	-0.32928	0.15442	0.05127	0.15595	-0.47455	0.010376	-0.013428	-0.099182	0.002899	-0.074921	0.040131	-0.62241	-0.068054	-0.033417	-0.055389	-0.05188	-0.005798	-0.20569	-0.068207	-0.044556	0.021362	-0.004272	-0.032196	0.059814	0.005798	-0.029907	-0.051727	0.63614	0.84457	0.000916	-0.012817
